<svg width="1079" height="696" viewBox="0 0 1079 696" fill="none" xmlns="http://www.w3.org/2000/svg">
<path fill-rule="evenodd" clip-rule="evenodd" d="M830.5 696C1289.17 696 1661 324.172 1661 -134.5C1661 -593.172 1289.17 -965 830.5 -965C371.828 -965 0 -593.172 0 -134.5C0 324.172 371.828 696 830.5 696ZM830.5 384.562C1117.17 384.562 1349.56 152.17 1349.56 -134.5C1349.56 -421.17 1117.17 -653.562 830.5 -653.562C543.83 -653.562 311.438 -421.17 311.438 -134.5C311.438 152.17 543.83 384.562 830.5 384.562Z" fill="#0158FF"/>
<path fill-rule="evenodd" clip-rule="evenodd" d="M830.5 633.713C1254.77 633.713 1598.71 289.772 1598.71 -134.5C1598.71 -558.772 1254.77 -902.712 830.5 -902.712C406.228 -902.712 62.2876 -558.772 62.2876 -134.5C62.2876 289.772 406.228 633.713 830.5 633.713ZM830.5 384.562C1117.17 384.562 1349.56 152.17 1349.56 -134.5C1349.56 -421.17 1117.17 -653.562 830.5 -653.562C543.83 -653.562 311.438 -421.17 311.438 -134.5C311.438 152.17 543.83 384.562 830.5 384.562Z" fill="#48E400"/>
<path fill-rule="evenodd" clip-rule="evenodd" d="M830.5 571.425C1220.37 571.425 1536.43 255.372 1536.43 -134.5C1536.43 -524.371 1220.37 -840.425 830.5 -840.425C440.629 -840.425 124.575 -524.371 124.575 -134.5C124.575 255.372 440.629 571.425 830.5 571.425ZM830.5 384.562C1117.17 384.562 1349.56 152.17 1349.56 -134.5C1349.56 -421.17 1117.17 -653.562 830.5 -653.562C543.83 -653.562 311.438 -421.17 311.438 -134.5C311.438 152.17 543.83 384.562 830.5 384.562Z" fill="#F4F605"/>
<path fill-rule="evenodd" clip-rule="evenodd" d="M830.5 509.137C1185.97 509.137 1474.14 220.971 1474.14 -134.5C1474.14 -489.971 1185.97 -778.138 830.5 -778.138C475.029 -778.138 186.862 -489.971 186.862 -134.5C186.862 220.971 475.029 509.137 830.5 509.137ZM830.5 384.562C1117.17 384.562 1349.56 152.17 1349.56 -134.5C1349.56 -421.17 1117.17 -653.562 830.5 -653.562C543.83 -653.562 311.438 -421.17 311.438 -134.5C311.438 152.17 543.83 384.562 830.5 384.562Z" fill="#FB9F01"/>
<path fill-rule="evenodd" clip-rule="evenodd" d="M830.5 446.85C1151.57 446.85 1411.85 186.571 1411.85 -134.5C1411.85 -455.571 1151.57 -715.85 830.5 -715.85C509.429 -715.85 249.15 -455.571 249.15 -134.5C249.15 186.571 509.429 446.85 830.5 446.85ZM830.5 384.562C1117.17 384.562 1349.56 152.17 1349.56 -134.5C1349.56 -421.17 1117.17 -653.562 830.5 -653.562C543.83 -653.562 311.438 -421.17 311.438 -134.5C311.438 152.17 543.83 384.562 830.5 384.562Z" fill="#FF2001"/>
</svg>
