<svg width="370" height="136" viewBox="0 0 370 136" fill="none" xmlns="http://www.w3.org/2000/svg">
<rect width="370" height="136" rx="16" fill="#001170"/>
<path fill-rule="evenodd" clip-rule="evenodd" d="M290 56.0724C290 53.614 287.803 51.7374 285.375 52.1215L224.375 61.7712C222.431 62.0787 221 63.7542 221 65.7221V100C221 102.209 222.791 104 225 104H286C288.209 104 290 102.209 290 100V56.0724ZM292 100C292 102.209 293.791 104 296 104H358C360.209 104 362 102.209 362 100V44.6825C362 42.2241 359.803 40.3475 357.375 40.7317L295.375 50.5396C293.431 50.8471 292 52.5226 292 54.4905V100ZM150 76.9537C150 74.9859 151.431 73.3103 153.375 73.0029L214.375 63.3531C216.803 62.969 219 64.8456 219 67.304V100C219 102.209 217.209 104 215 104H154C151.791 104 150 102.209 150 100V76.9537ZM148 78.5357C148 76.0773 145.803 74.2007 143.375 74.5848L82.375 84.2345C80.4313 84.542 79 86.2175 79 88.1854V100C79 102.209 80.7909 104 83 104H144C146.209 104 148 102.209 148 100V78.5357ZM8 99.417C8 97.4492 9.43132 95.7736 11.375 95.4661L72.375 85.8164C74.8032 85.4323 77 87.3089 77 89.7673V100C77 102.209 75.2091 104 73 104H12C9.79086 104 8 102.209 8 100V99.417Z" fill="url(#paint0_linear_61_457)"/>
<path d="M24.4193 81.4084L27.4753 77.2164L24.5633 73.1844H27.1393L28.8353 75.6164L30.5793 73.1844H33.0113L30.1153 77.2164L33.1713 81.4084H30.5953L28.7073 78.8324L26.8353 81.4084H24.4193ZM33.668 76.0644V75.5524C33.668 72.2084 35.572 70.1124 38.276 70.1124C40.996 70.1124 42.9 72.2084 42.9 75.5524V76.0644C42.9 79.4724 40.996 81.5044 38.276 81.5044C35.572 81.5044 33.668 79.4724 33.668 76.0644ZM40.596 75.9844V75.6324C40.596 73.3284 39.652 72.0644 38.276 72.0644C36.916 72.0644 35.972 73.3284 35.972 75.6324V75.9844C35.972 78.3044 36.916 79.5524 38.276 79.5524C39.652 79.5524 40.596 78.3044 40.596 75.9844ZM43.2788 80.1764C43.2788 79.3924 43.8548 78.8324 44.6388 78.8324C45.4068 78.8324 45.9988 79.3924 45.9988 80.1764C45.9988 80.9444 45.4068 81.5044 44.6388 81.5044C43.8548 81.5044 43.2788 80.9444 43.2788 80.1764ZM51.388 73.7764C53.644 73.7764 55.164 75.3284 55.164 77.6164C55.164 80.1924 53.244 81.5044 50.924 81.5044C48.332 81.5044 46.732 79.8564 46.636 77.8084H48.924C49.036 78.8164 49.74 79.6164 50.94 79.6164C51.916 79.6164 52.844 78.9444 52.844 77.6164C52.844 76.4324 52.092 75.6004 50.924 75.6004C50.3 75.6004 49.436 75.8404 49.036 76.7684H46.812L47.132 70.2084H54.492V72.1444H49.228L49.1 74.5924C49.66 74.0804 50.396 73.7764 51.388 73.7764Z" fill="white"/>
<path d="M97.5266 70.0669L100.583 65.8749L97.6706 61.8429H100.247L101.943 64.2749L103.687 61.8429H106.119L103.223 65.8749L106.279 70.0669H103.703L101.815 67.4909L99.9426 70.0669H97.5266ZM108.871 59.8909V58.8669H111.127V70.0669H108.823V62.8189C108.647 62.8669 108.455 62.8829 108.215 62.8829H106.343V60.9789H108.007C108.647 60.9789 108.871 60.5469 108.871 59.8909ZM112.714 68.8349C112.714 68.0509 113.29 67.4909 114.074 67.4909C114.842 67.4909 115.434 68.0509 115.434 68.8349C115.434 69.6029 114.842 70.1629 114.074 70.1629C113.29 70.1629 112.714 69.6029 112.714 68.8349ZM115.822 64.7229V64.2109C115.822 60.8669 117.726 58.7709 120.43 58.7709C123.15 58.7709 125.054 60.8669 125.054 64.2109V64.7229C125.054 68.1309 123.15 70.1629 120.43 70.1629C117.726 70.1629 115.822 68.1309 115.822 64.7229ZM122.75 64.6429V64.2909C122.75 61.9869 121.806 60.7229 120.43 60.7229C119.07 60.7229 118.126 61.9869 118.126 64.2909V64.6429C118.126 66.9629 119.07 68.2109 120.43 68.2109C121.806 68.2109 122.75 66.9629 122.75 64.6429Z" fill="white"/>
<path d="M167.659 59.0381L170.715 54.8461L167.803 50.8141H170.379L172.075 53.2461L173.819 50.8141H176.251L173.355 54.8461L176.411 59.0381H173.835L171.947 56.4621L170.075 59.0381H167.659ZM179.003 48.8621V47.8381H181.259V59.0381H178.955V51.7901C178.779 51.8381 178.587 51.8541 178.347 51.8541H176.475V49.9501H178.139C178.779 49.9501 179.003 49.5181 179.003 48.8621ZM182.846 57.8061C182.846 57.0221 183.422 56.4621 184.206 56.4621C184.974 56.4621 185.566 57.0221 185.566 57.8061C185.566 58.5741 184.974 59.1341 184.206 59.1341C183.422 59.1341 182.846 58.5741 182.846 57.8061ZM190.956 51.4061C193.212 51.4061 194.732 52.9581 194.732 55.2461C194.732 57.8221 192.812 59.1341 190.492 59.1341C187.9 59.1341 186.3 57.4861 186.204 55.4381H188.492C188.604 56.4461 189.308 57.2461 190.508 57.2461C191.484 57.2461 192.412 56.5741 192.412 55.2461C192.412 54.0621 191.66 53.2301 190.492 53.2301C189.868 53.2301 189.004 53.4701 188.604 54.3981H186.38L186.7 47.8381H194.06V49.7741H188.796L188.668 52.2221C189.228 51.7101 189.964 51.4061 190.956 51.4061Z" fill="white"/>
<path d="M236.772 47.775L239.828 43.583L236.916 39.551H239.492L241.188 41.983L242.932 39.551H245.364L242.468 43.583L245.524 47.775H242.948L241.06 45.199L239.188 47.775H236.772ZM245.797 47.775V45.999L250.053 42.479C251.029 41.679 251.637 41.007 251.637 40.095C251.637 38.991 250.917 38.415 249.893 38.415C248.821 38.415 248.085 39.151 248.085 40.367V40.543H245.765V40.223C245.765 38.111 247.349 36.479 249.909 36.479C252.533 36.479 253.957 37.903 253.957 39.999C253.957 41.647 253.061 42.655 251.653 43.791L249.141 45.839H254.021V47.775H245.797ZM255.069 46.543C255.069 45.759 255.645 45.199 256.429 45.199C257.197 45.199 257.789 45.759 257.789 46.543C257.789 47.311 257.197 47.871 256.429 47.871C255.645 47.871 255.069 47.311 255.069 46.543ZM258.177 42.431V41.919C258.177 38.575 260.081 36.479 262.785 36.479C265.505 36.479 267.409 38.575 267.409 41.919V42.431C267.409 45.839 265.505 47.871 262.785 47.871C260.081 47.871 258.177 45.839 258.177 42.431ZM265.105 42.351V41.999C265.105 39.695 264.161 38.431 262.785 38.431C261.425 38.431 260.481 39.695 260.481 41.999V42.351C260.481 44.671 261.425 45.919 262.785 45.919C264.161 45.919 265.105 44.671 265.105 42.351Z" fill="white"/>
<path d="M309.638 36.2771L312.694 32.0851L309.782 28.0531H312.358L314.054 30.4851L315.798 28.0531H318.23L315.334 32.0851L318.39 36.2771H315.814L313.926 33.7011L312.054 36.2771H309.638ZM318.663 36.2771V34.5011L322.919 30.9811C323.895 30.1811 324.503 29.5091 324.503 28.5971C324.503 27.4931 323.783 26.9171 322.759 26.9171C321.687 26.9171 320.951 27.6531 320.951 28.8691V29.0451H318.631V28.7251C318.631 26.6131 320.215 24.9811 322.775 24.9811C325.399 24.9811 326.823 26.4051 326.823 28.5011C326.823 30.1491 325.927 31.1571 324.519 32.2931L322.007 34.3411H326.887V36.2771H318.663ZM327.935 35.0451C327.935 34.2611 328.511 33.7011 329.295 33.7011C330.063 33.7011 330.655 34.2611 330.655 35.0451C330.655 35.8131 330.063 36.3731 329.295 36.3731C328.511 36.3731 327.935 35.8131 327.935 35.0451ZM336.045 28.6451C338.301 28.6451 339.821 30.1971 339.821 32.4851C339.821 35.0611 337.901 36.3731 335.581 36.3731C332.989 36.3731 331.389 34.7251 331.293 32.6771H333.581C333.693 33.6851 334.397 34.4851 335.597 34.4851C336.573 34.4851 337.501 33.8131 337.501 32.4851C337.501 31.3011 336.749 30.4691 335.581 30.4691C334.957 30.4691 334.093 30.7091 333.693 31.6371H331.469L331.789 25.0771H339.149V27.0131H333.885L333.757 29.4611C334.317 28.9491 335.053 28.6451 336.045 28.6451Z" fill="white"/>
<path d="M29.67 117.76V117H30.49V124H29.65V118.98C29.55 119.07 29.39 119.11 29.17 119.11H28.04V118.36H29.18C29.51 118.36 29.67 118.11 29.67 117.76ZM35.5308 124L33.8808 118.9H34.7408L36.0108 123.05L37.3508 118.9H38.1108L39.3808 123.05L40.7108 118.9H41.5408L39.8408 124H38.9408L37.7108 120.21L36.4308 124H35.5308ZM44.367 124.06C42.837 124.06 41.837 123.01 41.837 121.45C41.837 119.9 42.817 118.84 44.257 118.84C45.697 118.84 46.637 119.75 46.677 121.26C46.677 121.37 46.667 121.49 46.657 121.61H42.697V121.68C42.727 122.65 43.337 123.33 44.307 123.33C45.027 123.33 45.587 122.95 45.757 122.29H46.587C46.387 123.31 45.547 124.06 44.367 124.06ZM42.747 120.93H45.797C45.717 120.05 45.117 119.56 44.267 119.56C43.517 119.56 42.827 120.1 42.747 120.93ZM49.9627 124.06C48.4327 124.06 47.4327 123.01 47.4327 121.45C47.4327 119.9 48.4127 118.84 49.8527 118.84C51.2927 118.84 52.2327 119.75 52.2727 121.26C52.2727 121.37 52.2627 121.49 52.2527 121.61H48.2927V121.68C48.3227 122.65 48.9327 123.33 49.9027 123.33C50.6227 123.33 51.1827 122.95 51.3527 122.29H52.1827C51.9827 123.31 51.1427 124.06 49.9627 124.06ZM48.3427 120.93H51.3927C51.3127 120.05 50.7127 119.56 49.8627 119.56C49.1127 119.56 48.4227 120.1 48.3427 120.93ZM53.2084 124V117H54.0284V121.61L56.5884 118.9H57.5984L55.6084 121.01L57.7384 124H56.7484L55.0584 121.6L54.0284 122.66V124H53.2084Z" fill="white"/>
<path d="M94.22 124V123.29L96.94 120.93C97.59 120.37 98.13 119.83 98.13 119.07C98.13 118.19 97.53 117.69 96.6 117.69C95.7 117.69 95.1 118.29 95.1 119.25V119.38H94.26V119.2C94.26 117.88 95.19 116.94 96.6 116.94C98.11 116.94 98.99 117.77 98.99 119.03C98.99 120.08 98.31 120.74 97.48 121.45L95.38 123.23H99.04V124H94.22ZM103.699 124L102.049 118.9H102.909L104.179 123.05L105.519 118.9H106.279L107.549 123.05L108.879 118.9H109.709L108.009 124H107.109L105.879 120.21L104.599 124H103.699ZM112.535 124.06C111.005 124.06 110.005 123.01 110.005 121.45C110.005 119.9 110.985 118.84 112.425 118.84C113.865 118.84 114.805 119.75 114.845 121.26C114.845 121.37 114.835 121.49 114.825 121.61H110.865V121.68C110.895 122.65 111.505 123.33 112.475 123.33C113.195 123.33 113.755 122.95 113.925 122.29H114.755C114.555 123.31 113.715 124.06 112.535 124.06ZM110.915 120.93H113.965C113.885 120.05 113.285 119.56 112.435 119.56C111.685 119.56 110.995 120.1 110.915 120.93ZM118.131 124.06C116.601 124.06 115.601 123.01 115.601 121.45C115.601 119.9 116.581 118.84 118.021 118.84C119.461 118.84 120.401 119.75 120.441 121.26C120.441 121.37 120.431 121.49 120.421 121.61H116.461V121.68C116.491 122.65 117.101 123.33 118.071 123.33C118.791 123.33 119.351 122.95 119.521 122.29H120.351C120.151 123.31 119.311 124.06 118.131 124.06ZM116.511 120.93H119.561C119.481 120.05 118.881 119.56 118.031 119.56C117.281 119.56 116.591 120.1 116.511 120.93ZM121.376 124V117H122.196V121.61L124.756 118.9H125.766L123.776 121.01L125.906 124H124.916L123.226 121.6L122.196 122.66V124H121.376ZM126.118 122.32H126.958C126.988 122.92 127.518 123.36 128.368 123.36C129.088 123.36 129.598 123.05 129.598 122.58C129.598 121.94 129.038 121.89 128.278 121.8C127.138 121.66 126.228 121.43 126.228 120.37C126.228 119.44 127.078 118.83 128.228 118.84C129.388 118.85 130.228 119.39 130.308 120.45H129.468C129.408 119.93 128.928 119.54 128.228 119.54C127.518 119.54 127.038 119.84 127.038 120.31C127.038 120.87 127.578 120.94 128.318 121.03C129.478 121.17 130.408 121.39 130.408 122.52C130.408 123.47 129.498 124.06 128.368 124.06C127.048 124.06 126.138 123.44 126.118 122.32Z" fill="white"/>
<path d="M168.99 120.36C169.63 120.48 170.3 120.99 170.3 122.06C170.3 123.25 169.3 124.06 167.78 124.06C166.26 124.06 165.28 123.23 165.28 121.84H166.11C166.12 122.76 166.84 123.31 167.83 123.31C168.74 123.31 169.44 122.8 169.44 122C169.44 121.27 168.84 120.8 167.75 120.8H167.15V120.07H167.7C168.74 120.07 169.26 119.55 169.26 118.84C169.26 118.13 168.62 117.69 167.78 117.69C166.9 117.69 166.26 118.22 166.25 119.02H165.42C165.43 117.79 166.39 116.94 167.77 116.94C169.21 116.94 170.12 117.69 170.12 118.79C170.12 119.67 169.66 120.18 168.99 120.36ZM175.05 124L173.4 118.9H174.26L175.53 123.05L176.87 118.9H177.63L178.9 123.05L180.23 118.9H181.06L179.36 124H178.46L177.23 120.21L175.95 124H175.05ZM183.887 124.06C182.357 124.06 181.357 123.01 181.357 121.45C181.357 119.9 182.337 118.84 183.777 118.84C185.217 118.84 186.157 119.75 186.197 121.26C186.197 121.37 186.187 121.49 186.177 121.61H182.217V121.68C182.247 122.65 182.857 123.33 183.827 123.33C184.547 123.33 185.107 122.95 185.277 122.29H186.107C185.907 123.31 185.067 124.06 183.887 124.06ZM182.267 120.93H185.317C185.237 120.05 184.637 119.56 183.787 119.56C183.037 119.56 182.347 120.1 182.267 120.93ZM189.482 124.06C187.952 124.06 186.952 123.01 186.952 121.45C186.952 119.9 187.932 118.84 189.372 118.84C190.812 118.84 191.752 119.75 191.792 121.26C191.792 121.37 191.782 121.49 191.772 121.61H187.812V121.68C187.842 122.65 188.452 123.33 189.422 123.33C190.142 123.33 190.702 122.95 190.872 122.29H191.702C191.502 123.31 190.662 124.06 189.482 124.06ZM187.862 120.93H190.912C190.832 120.05 190.232 119.56 189.382 119.56C188.632 119.56 187.942 120.1 187.862 120.93ZM192.728 124V117H193.548V121.61L196.108 118.9H197.118L195.128 121.01L197.258 124H196.268L194.578 121.6L193.548 122.66V124H192.728ZM197.469 122.32H198.309C198.339 122.92 198.869 123.36 199.719 123.36C200.439 123.36 200.949 123.05 200.949 122.58C200.949 121.94 200.389 121.89 199.629 121.8C198.489 121.66 197.579 121.43 197.579 120.37C197.579 119.44 198.429 118.83 199.579 118.84C200.739 118.85 201.579 119.39 201.659 120.45H200.819C200.759 119.93 200.279 119.54 199.579 119.54C198.869 119.54 198.389 119.84 198.389 120.31C198.389 120.87 198.929 120.94 199.669 121.03C200.829 121.17 201.759 121.39 201.759 122.52C201.759 123.47 200.849 124.06 199.719 124.06C198.399 124.06 197.489 123.44 197.469 122.32Z" fill="white"/>
<path d="M234.13 122.29V121.54L237.7 117H238.64V121.52H239.77V122.29H238.64V124H237.8V122.29H234.13ZM237.8 118.03L235.07 121.52H237.8V118.03ZM244.216 124L242.566 118.9H243.426L244.696 123.05L246.036 118.9H246.796L248.066 123.05L249.396 118.9H250.226L248.526 124H247.626L246.396 120.21L245.116 124H244.216ZM253.053 124.06C251.523 124.06 250.523 123.01 250.523 121.45C250.523 119.9 251.503 118.84 252.943 118.84C254.383 118.84 255.323 119.75 255.363 121.26C255.363 121.37 255.353 121.49 255.343 121.61H251.383V121.68C251.413 122.65 252.023 123.33 252.993 123.33C253.713 123.33 254.273 122.95 254.443 122.29H255.273C255.073 123.31 254.233 124.06 253.053 124.06ZM251.433 120.93H254.483C254.403 120.05 253.803 119.56 252.953 119.56C252.203 119.56 251.513 120.1 251.433 120.93ZM258.648 124.06C257.118 124.06 256.118 123.01 256.118 121.45C256.118 119.9 257.098 118.84 258.538 118.84C259.978 118.84 260.918 119.75 260.958 121.26C260.958 121.37 260.948 121.49 260.938 121.61H256.978V121.68C257.008 122.65 257.618 123.33 258.588 123.33C259.308 123.33 259.868 122.95 260.038 122.29H260.868C260.668 123.31 259.828 124.06 258.648 124.06ZM257.028 120.93H260.078C259.998 120.05 259.398 119.56 258.548 119.56C257.798 119.56 257.108 120.1 257.028 120.93ZM261.894 124V117H262.714V121.61L265.274 118.9H266.284L264.294 121.01L266.424 124H265.434L263.744 121.6L262.714 122.66V124H261.894ZM266.635 122.32H267.475C267.505 122.92 268.035 123.36 268.885 123.36C269.605 123.36 270.115 123.05 270.115 122.58C270.115 121.94 269.555 121.89 268.795 121.8C267.655 121.66 266.745 121.43 266.745 120.37C266.745 119.44 267.595 118.83 268.745 118.84C269.905 118.85 270.745 119.39 270.825 120.45H269.985C269.925 119.93 269.445 119.54 268.745 119.54C268.035 119.54 267.555 119.84 267.555 120.31C267.555 120.87 268.095 120.94 268.835 121.03C269.995 121.17 270.925 121.39 270.925 122.52C270.925 123.47 270.015 124.06 268.885 124.06C267.565 124.06 266.655 123.44 266.635 122.32Z" fill="white"/>
<path d="M309.05 119.31C310.42 119.31 311.37 120.27 311.37 121.66C311.37 123.21 310.23 124.05 308.92 124.05C307.36 124.05 306.46 123.04 306.39 121.82H307.22C307.3 122.63 307.91 123.3 308.92 123.3C309.74 123.3 310.51 122.75 310.51 121.67C310.51 120.72 309.9 120.05 308.93 120.05C308.5 120.05 307.64 120.17 307.34 121L306.53 120.98L306.76 117H310.95V117.77H307.53L307.37 119.98C307.8 119.47 308.4 119.31 309.05 119.31ZM316.031 124L314.381 118.9H315.241L316.511 123.05L317.851 118.9H318.611L319.881 123.05L321.211 118.9H322.041L320.341 124H319.441L318.211 120.21L316.931 124H316.031ZM324.867 124.06C323.337 124.06 322.337 123.01 322.337 121.45C322.337 119.9 323.317 118.84 324.757 118.84C326.197 118.84 327.137 119.75 327.177 121.26C327.177 121.37 327.167 121.49 327.157 121.61H323.197V121.68C323.227 122.65 323.837 123.33 324.807 123.33C325.527 123.33 326.087 122.95 326.257 122.29H327.087C326.887 123.31 326.047 124.06 324.867 124.06ZM323.247 120.93H326.297C326.217 120.05 325.617 119.56 324.767 119.56C324.017 119.56 323.327 120.1 323.247 120.93ZM330.463 124.06C328.933 124.06 327.933 123.01 327.933 121.45C327.933 119.9 328.913 118.84 330.353 118.84C331.793 118.84 332.733 119.75 332.773 121.26C332.773 121.37 332.763 121.49 332.753 121.61H328.793V121.68C328.823 122.65 329.433 123.33 330.403 123.33C331.123 123.33 331.683 122.95 331.853 122.29H332.683C332.483 123.31 331.643 124.06 330.463 124.06ZM328.843 120.93H331.893C331.813 120.05 331.213 119.56 330.363 119.56C329.613 119.56 328.923 120.1 328.843 120.93ZM333.708 124V117H334.528V121.61L337.088 118.9H338.098L336.108 121.01L338.238 124H337.248L335.558 121.6L334.528 122.66V124H333.708ZM338.45 122.32H339.29C339.32 122.92 339.85 123.36 340.7 123.36C341.42 123.36 341.93 123.05 341.93 122.58C341.93 121.94 341.37 121.89 340.61 121.8C339.47 121.66 338.56 121.43 338.56 120.37C338.56 119.44 339.41 118.83 340.56 118.84C341.72 118.85 342.56 119.39 342.64 120.45H341.8C341.74 119.93 341.26 119.54 340.56 119.54C339.85 119.54 339.37 119.84 339.37 120.31C339.37 120.87 339.91 120.94 340.65 121.03C341.81 121.17 342.74 121.39 342.74 122.52C342.74 123.47 341.83 124.06 340.7 124.06C339.38 124.06 338.47 123.44 338.45 122.32Z" fill="white"/>
<defs>
<linearGradient id="paint0_linear_61_457" x1="362" y1="100.041" x2="7.99999" y2="100.041" gradientUnits="userSpaceOnUse">
<stop stop-color="#FF0F00"/>
<stop offset="1" stop-color="#DBFF00"/>
</linearGradient>
</defs>
</svg>
