<svg width="1600" height="682" viewBox="0 0 1600 682" fill="none" xmlns="http://www.w3.org/2000/svg">
<path d="M1186.9 569.156L2608.39 -239.523V-184.608L1186.9 627.794V569.156Z" fill="#53AEF9"/>
<path d="M1186.9 569.156L-234.584 -239.523V-184.608L1186.9 627.794V569.156Z" fill="#1A78D7"/>
<path d="M1186.9 627.794L2630.81 -199.733V-145.749L1186.9 681.779V627.794Z" fill="#827FF4"/>
<path d="M1186.9 627.794L-257 -199.733V-145.749L1186.9 681.779V627.794Z" fill="#4F28DD"/>
<path d="M1186.9 492.058L2517.02 -293.275V-187.478L1186.9 569.156V492.058Z" fill="#74CA38"/>
<path d="M1186.9 412.478L2507.56 -373.321V-287.69L1186.9 492.058V412.478Z" fill="#FFC866"/>
<path d="M1186.9 340.343L2551.31 -491.605V-399.305L1186.9 412.478V340.343Z" fill="#F78F31"/>
<path d="M1186.9 270.226L2544.4 -558V-487.417L1186.9 340.343V270.226Z" fill="#FC306B"/>
<path d="M1186.9 492.058L-143.215 -293.275V-187.478L1186.9 569.156V492.058Z" fill="#0BB875"/>
<path d="M1186.9 412.478L-133.753 -373.321V-287.69L1186.9 492.058V412.478Z" fill="#FEB92F"/>
<path d="M1186.9 340.343L-177.498 -491.605V-399.305L1186.9 412.478V340.343Z" fill="#F86E30"/>
<path d="M1186.9 270.226L-170.594 -558V-487.417L1186.9 340.343V270.226Z" fill="#E91224"/>
</svg>
