<svg width="256" height="256" viewBox="0 0 256 256" fill="none" xmlns="http://www.w3.org/2000/svg">
<path d="M128 256C198.692 256 256 198.692 256 128C256 57.3075 198.692 0 128 0C57.3075 0 0 57.3075 0 128C0 198.692 57.3075 256 128 256Z" fill="#49C4C9"/>
<path d="M128 240C189.856 240 240 189.856 240 128C240 66.1441 189.856 16 128 16C66.1441 16 16 66.1441 16 128C16 189.856 66.1441 240 128 240Z" fill="#343434"/>
<path d="M128 224C181.019 224 224 181.019 224 128C224 74.9807 181.019 32 128 32C74.9807 32 32 74.9807 32 128C32 181.019 74.9807 224 128 224Z" fill="#262626"/>
<path d="M128 208C172.183 208 208 172.183 208 128C208 83.8172 172.183 48 128 48C83.8172 48 48 83.8172 48 128C48 172.183 83.8172 208 128 208Z" fill="#1D1D1D"/>
<path d="M128.427 194.56C165.422 194.56 195.413 164.569 195.413 127.573C195.413 90.5776 165.422 60.5867 128.427 60.5867C91.431 60.5867 61.44 90.5776 61.44 127.573C61.44 164.569 91.431 194.56 128.427 194.56Z" fill="black"/>
<path fill-rule="evenodd" clip-rule="evenodd" d="M97.0109 83.5113L91.1546 89.3701L119.734 117.955V144.564H136.389V117.955L164.9 89.4396L153.114 77.6617L140.665 90.0794C133.818 96.9095 128.148 102.498 128.065 102.498C127.982 102.498 122.304 96.9078 115.447 90.0752C108.59 83.2434 102.955 77.6533 102.923 77.6533C102.892 77.6533 100.231 80.2893 97.0109 83.5113ZM90.4085 117.849C88.5446 121.785 87.4653 125.176 86.7703 129.28C84.7825 141.014 87.9242 153.097 95.4041 162.491C96.6383 164.041 100.27 167.672 101.81 168.895C108.739 174.399 116.627 177.448 125.475 178.043C130.768 178.399 136.06 177.705 141.258 175.973C156.284 170.968 167.132 158.05 169.478 142.368C170.381 136.334 169.893 129.879 168.085 123.926C167.367 121.559 165.911 118.013 165.15 116.776L164.858 116.303L158.523 122.634C153.412 127.741 152.203 129.02 152.267 129.247C152.79 131.079 153.068 132.982 153.142 135.247C153.286 139.638 152.591 143.186 150.863 146.893C147.503 154.099 140.947 159.241 132.931 160.959C131.539 161.257 131.028 161.29 127.991 161.286C125.011 161.282 124.426 161.243 123.121 160.961C115.174 159.243 108.924 154.382 105.398 147.175C103.804 143.918 103.083 140.904 102.974 137.047C102.896 134.259 103.05 132.572 103.583 130.378L103.926 128.966L97.6113 122.649C94.1372 119.174 91.2576 116.331 91.2115 116.331C91.1646 116.331 90.8037 117.014 90.4085 117.849Z" fill="white"/>
</svg>
