<svg width="314" height="314" viewBox="0 0 314 314" fill="none" xmlns="http://www.w3.org/2000/svg">
<g clip-path="url(#clip0_414_482)">
<path d="M157 314C243.709 314 314 243.709 314 157C314 70.2913 243.709 0 157 0C70.2913 0 0 70.2913 0 157C0 243.709 70.2913 314 157 314Z" fill="#49C4C9"/>
<path d="M157 294.375C232.87 294.375 294.375 232.87 294.375 157C294.375 81.1299 232.87 19.625 157 19.625C81.1299 19.625 19.625 81.1299 19.625 157C19.625 232.87 81.1299 294.375 157 294.375Z" fill="#343434"/>
<path d="M157 274.75C222.032 274.75 274.75 222.032 274.75 157C274.75 91.9685 222.032 39.25 157 39.25C91.9685 39.25 39.25 91.9685 39.25 157C39.25 222.032 91.9685 274.75 157 274.75Z" fill="#262626"/>
<path d="M157 255.125C211.193 255.125 255.125 211.193 255.125 157C255.125 102.807 211.193 58.875 157 58.875C102.807 58.875 58.875 102.807 58.875 157C58.875 211.193 102.807 255.125 157 255.125Z" fill="black"/>
<path d="M157.5 235C200.854 235 236 199.854 236 156.5C236 113.146 200.854 78 157.5 78C114.146 78 79 113.146 79 156.5C79 199.854 114.146 235 157.5 235Z" fill="black"/>
<path fill-rule="evenodd" clip-rule="evenodd" d="M120.685 104.865L113.822 111.731L130.568 128.48L147.314 145.229V160.82V176.411H157.072H166.831V160.82V145.229L183.537 128.521L200.242 111.812L193.336 104.911L186.43 98.0098L171.842 112.562C163.818 120.566 157.173 127.115 157.076 127.115C156.979 127.115 150.325 120.564 142.29 112.557C134.254 104.551 127.651 98 127.613 98C127.577 98 124.459 101.089 120.685 104.865ZM112.947 145.104C110.763 149.717 109.498 153.691 108.684 158.5C106.354 172.25 110.036 186.411 118.802 197.419C120.248 199.236 124.504 203.49 126.308 204.924C134.428 211.374 143.672 214.947 154.041 215.644C160.244 216.061 166.445 215.248 172.537 213.218C190.145 207.353 202.857 192.215 205.607 173.838C206.665 166.766 206.094 159.202 203.975 152.226C203.133 149.452 201.427 145.296 200.535 143.847L200.193 143.293L192.769 150.712C186.78 156.696 185.363 158.196 185.438 158.462C186.051 160.608 186.376 162.838 186.463 165.492C186.632 170.638 185.818 174.797 183.793 179.141C179.855 187.584 172.172 193.61 162.778 195.624C161.147 195.973 160.548 196.012 156.99 196.007C153.498 196.002 152.812 195.956 151.283 195.627C141.97 193.613 134.646 187.916 130.514 179.471C128.646 175.654 127.801 172.122 127.673 167.602C127.581 164.334 127.761 162.358 128.386 159.786L128.788 158.132L121.388 150.729C117.317 146.657 113.942 143.326 113.889 143.326C113.834 143.326 113.411 144.126 112.947 145.104Z" fill="white"/>
</g>
<defs>
<clipPath id="clip0_414_482">
<rect width="314" height="314" fill="white"/>
</clipPath>
</defs>
</svg>
